<mxfile host="app.diagrams.net" agent="Mozilla/5.0 (Windows NT 10.0; Win64; x64) AppleWebKit/537.36 (KHTML, like Gecko) Chrome/127.0.0.0 Safari/537.36" version="24.7.7">
  <diagram name="Página-1" id="znqipKSRwdGPcLxsEUx6">
    <mxGraphModel dx="1434" dy="772" grid="1" gridSize="10" guides="1" tooltips="1" connect="1" arrows="1" fold="1" page="1" pageScale="1" pageWidth="827" pageHeight="1169" math="0" shadow="0">
      <root>
        <mxCell id="0" />
        <mxCell id="1" parent="0" />
        <mxCell id="twEsAP51GNQAddWjnlDJ-1" value="cancelación reserva" style="ellipse;whiteSpace=wrap;html=1;" vertex="1" parent="1">
          <mxGeometry x="140" y="480" width="120" height="80" as="geometry" />
        </mxCell>
        <mxCell id="twEsAP51GNQAddWjnlDJ-2" value="ingresar motivo de cancelación" style="ellipse;whiteSpace=wrap;html=1;" vertex="1" parent="1">
          <mxGeometry x="350" y="490" width="120" height="80" as="geometry" />
        </mxCell>
        <mxCell id="twEsAP51GNQAddWjnlDJ-3" value="mostrar resumen de la cancelación de la reserva&amp;nbsp;" style="ellipse;whiteSpace=wrap;html=1;" vertex="1" parent="1">
          <mxGeometry x="550" y="490" width="120" height="80" as="geometry" />
        </mxCell>
        <mxCell id="twEsAP51GNQAddWjnlDJ-4" value="enviar notificación al email" style="ellipse;whiteSpace=wrap;html=1;" vertex="1" parent="1">
          <mxGeometry x="380" y="650" width="120" height="80" as="geometry" />
        </mxCell>
        <mxCell id="twEsAP51GNQAddWjnlDJ-5" value="include" style="endArrow=classic;html=1;rounded=0;dashed=1;strokeColor=default;align=center;verticalAlign=middle;fontFamily=Helvetica;fontSize=11;fontColor=default;labelBackgroundColor=default;entryX=0.5;entryY=0;entryDx=0;entryDy=0;exitX=0.5;exitY=1;exitDx=0;exitDy=0;" edge="1" parent="1" source="twEsAP51GNQAddWjnlDJ-3" target="twEsAP51GNQAddWjnlDJ-4">
          <mxGeometry width="50" height="50" relative="1" as="geometry">
            <mxPoint x="440" y="340" as="sourcePoint" />
            <mxPoint x="490" y="290" as="targetPoint" />
          </mxGeometry>
        </mxCell>
        <mxCell id="twEsAP51GNQAddWjnlDJ-6" value="extend" style="endArrow=classic;html=1;rounded=0;dashed=1;strokeColor=default;align=center;verticalAlign=middle;fontFamily=Helvetica;fontSize=11;fontColor=default;labelBackgroundColor=default;exitX=1;exitY=0.5;exitDx=0;exitDy=0;entryX=-0.017;entryY=0.413;entryDx=0;entryDy=0;entryPerimeter=0;" edge="1" parent="1" source="twEsAP51GNQAddWjnlDJ-1" target="twEsAP51GNQAddWjnlDJ-2">
          <mxGeometry width="50" height="50" relative="1" as="geometry">
            <mxPoint x="170" y="545" as="sourcePoint" />
            <mxPoint x="334" y="601" as="targetPoint" />
          </mxGeometry>
        </mxCell>
        <mxCell id="twEsAP51GNQAddWjnlDJ-7" value="extend" style="endArrow=classic;html=1;rounded=0;dashed=1;strokeColor=default;align=center;verticalAlign=middle;fontFamily=Helvetica;fontSize=11;fontColor=default;labelBackgroundColor=default;exitX=1;exitY=0.5;exitDx=0;exitDy=0;entryX=0;entryY=0.5;entryDx=0;entryDy=0;" edge="1" parent="1" source="twEsAP51GNQAddWjnlDJ-2" target="twEsAP51GNQAddWjnlDJ-3">
          <mxGeometry width="50" height="50" relative="1" as="geometry">
            <mxPoint x="190" y="565" as="sourcePoint" />
            <mxPoint x="354" y="621" as="targetPoint" />
          </mxGeometry>
        </mxCell>
        <mxCell id="twEsAP51GNQAddWjnlDJ-8" value="" style="endArrow=none;html=1;rounded=0;" edge="1" parent="1" source="twEsAP51GNQAddWjnlDJ-1">
          <mxGeometry width="50" height="50" relative="1" as="geometry">
            <mxPoint x="20" y="560" as="sourcePoint" />
            <mxPoint x="40" y="620" as="targetPoint" />
          </mxGeometry>
        </mxCell>
        <mxCell id="twEsAP51GNQAddWjnlDJ-9" value="Actor" style="shape=umlActor;verticalLabelPosition=bottom;verticalAlign=top;html=1;outlineConnect=0;" vertex="1" parent="1">
          <mxGeometry y="590" width="30" height="60" as="geometry" />
        </mxCell>
        <mxCell id="twEsAP51GNQAddWjnlDJ-10" value="guardar cancelación en el sistema" style="ellipse;whiteSpace=wrap;html=1;" vertex="1" parent="1">
          <mxGeometry x="630" y="650" width="120" height="80" as="geometry" />
        </mxCell>
        <mxCell id="twEsAP51GNQAddWjnlDJ-11" value="validar datos" style="ellipse;whiteSpace=wrap;html=1;" vertex="1" parent="1">
          <mxGeometry x="170" y="650" width="120" height="80" as="geometry" />
        </mxCell>
        <mxCell id="twEsAP51GNQAddWjnlDJ-13" value="include" style="endArrow=classic;html=1;rounded=0;dashed=1;strokeColor=default;align=center;verticalAlign=middle;fontFamily=Helvetica;fontSize=11;fontColor=default;labelBackgroundColor=default;entryX=0.625;entryY=-0.012;entryDx=0;entryDy=0;exitX=0.667;exitY=1.013;exitDx=0;exitDy=0;exitPerimeter=0;entryPerimeter=0;" edge="1" parent="1" source="twEsAP51GNQAddWjnlDJ-1" target="twEsAP51GNQAddWjnlDJ-11">
          <mxGeometry width="50" height="50" relative="1" as="geometry">
            <mxPoint x="414" y="570" as="sourcePoint" />
            <mxPoint x="278" y="660" as="targetPoint" />
          </mxGeometry>
        </mxCell>
        <mxCell id="twEsAP51GNQAddWjnlDJ-15" value="sistema" style="shape=umlActor;verticalLabelPosition=bottom;verticalAlign=top;html=1;outlineConnect=0;" vertex="1" parent="1">
          <mxGeometry x="780" y="640" width="30" height="60" as="geometry" />
        </mxCell>
        <mxCell id="twEsAP51GNQAddWjnlDJ-16" value="" style="endArrow=none;html=1;rounded=0;exitX=0.967;exitY=0.413;exitDx=0;exitDy=0;exitPerimeter=0;" edge="1" parent="1" source="twEsAP51GNQAddWjnlDJ-10">
          <mxGeometry width="50" height="50" relative="1" as="geometry">
            <mxPoint x="520" y="650" as="sourcePoint" />
            <mxPoint x="780" y="680" as="targetPoint" />
          </mxGeometry>
        </mxCell>
        <mxCell id="twEsAP51GNQAddWjnlDJ-17" value="include" style="endArrow=classic;html=1;rounded=0;dashed=1;strokeColor=default;align=center;verticalAlign=middle;fontFamily=Helvetica;fontSize=11;fontColor=default;labelBackgroundColor=default;exitX=0.667;exitY=1.038;exitDx=0;exitDy=0;exitPerimeter=0;" edge="1" parent="1" source="twEsAP51GNQAddWjnlDJ-3" target="twEsAP51GNQAddWjnlDJ-10">
          <mxGeometry width="50" height="50" relative="1" as="geometry">
            <mxPoint x="640" y="600" as="sourcePoint" />
            <mxPoint x="504" y="690" as="targetPoint" />
          </mxGeometry>
        </mxCell>
      </root>
    </mxGraphModel>
  </diagram>
</mxfile>
